# xmcd
#
# Track frame offsets:
#	150
#	15613
#	30116
#	44526
#	55748
#	71020
#	83981
#	101433
#	112862
#	128495
#	137899
#
# Disc length: 1985 seconds
#
# Revision: 0
# Processed by: cddbd v1.5.2PL0 Copyright (c) Steve Scherf et al.
# Submitted via: EasyCDDAExtractor 16.0.6.1
#
DISCID=8407bf0b
DTITLE=Dennis Weaver - Dennis Weaver - Sam McCloud
DYEAR=1972
DGENRE=Country
TTITLE0=Another Way
TTITLE1=Ode to a Critter (Fish, Bird and Cow Song)
TTITLE2=Lonesome to the Lonely
TTITLE3=I'd Rather Be With You Than Anyone
TTITLE4=20th Century Man (Our Man Is Coming)
TTITLE5=Where Have the Wild Blackberries Gone
TTITLE6=No Name
TTITLE7=Learn to Love
TTITLE8=I Still Sing "Jesus Loves Me"
TTITLE9=Time
TTITLE10=Work Through My Hands Lord
EXTD=
EXTT0=
EXTT1=
EXTT2=
EXTT3=
EXTT4=
EXTT5=
EXTT6=
EXTT7=
EXTT8=
EXTT9=
EXTT10=
PLAYORDER=
